<svg width="34" height="40" viewBox="0 0 34 40" fill="none" xmlns="http://www.w3.org/2000/svg">
<path d="M31.2202 24.5568L32.0145 24.9799L31.2202 24.5568C31.1318 24.7227 31.0406 24.8869 30.9467 25.0493C30.5187 25.7892 30.0334 26.492 29.4969 27.1516C29.4296 27.2343 29.3616 27.3163 29.2927 27.3977L29.2926 27.3978L29.2918 27.3987L29.2917 27.3988L29.2911 27.3995L29.2902 27.4006L19.2564 38.0921C18.0328 39.391 15.968 39.3913 14.7442 38.0928C14.7439 38.0926 14.7437 38.0924 14.7435 38.0921L4.7098 27.4006L4.70774 27.3982L4.7077 27.3981L4.68793 27.3747C4.10581 26.6847 3.58073 25.9451 3.11991 25.1633L2.34458 25.6204L3.1199 25.1633C3.09756 25.1254 3.07538 25.0874 3.05334 25.0493C1.68401 22.6822 0.9 19.934 0.9 17C0.9 8.10822 8.10822 0.9 17 0.9C25.8918 0.9 33.1 8.10822 33.1 17C33.1 19.733 32.4198 22.3044 31.2202 24.5568ZM10.1049 17.5C10.1049 21.3108 13.1941 24.4 17.0049 24.4C20.8156 24.4 23.9049 21.3108 23.9049 17.5C23.9049 13.6892 20.8156 10.6 17.0049 10.6C13.1941 10.6 10.1049 13.6892 10.1049 17.5Z" fill="white" stroke="black" stroke-width="1.8"/>
</svg>
