<svg width="20" height="20" viewBox="0 0 20 20" fill="none" xmlns="http://www.w3.org/2000/svg">
<g id="battery_6_bar">
<mask id="mask0_10894_2923" style="mask-type:alpha" maskUnits="userSpaceOnUse" x="0" y="0" width="20" height="20">
<rect id="Bounding box" width="20" height="20" fill="#D9D9D9"/>
</mask>
<g mask="url(#mask0_10894_2923)">
<path id="battery_6_bar_2" d="M6.66536 18.3334C6.42925 18.3334 6.23134 18.2535 6.07161 18.0938C5.91189 17.934 5.83203 17.7361 5.83203 17.5V4.16669C5.83203 3.93058 5.91189 3.73266 6.07161 3.57294C6.23134 3.41321 6.42925 3.33335 6.66536 3.33335H8.33203V1.66669H11.6654V3.33335H13.332C13.5681 3.33335 13.7661 3.41321 13.9258 3.57294C14.0855 3.73266 14.1654 3.93058 14.1654 4.16669V17.5C14.1654 17.7361 14.0855 17.934 13.9258 18.0938C13.7661 18.2535 13.5681 18.3334 13.332 18.3334H6.66536ZM7.4987 6.66669H12.4987V5.00002H7.4987V6.66669Z" fill="white"/>
</g>
</g>
</svg>
