<svg width="20" height="20" viewBox="0 0 20 20" fill="none" xmlns="http://www.w3.org/2000/svg">
<path d="M8.60098 20C7.75098 20 7.10514 19.7458 6.66348 19.2375C6.22181 18.7292 6.00098 18.15 6.00098 17.5C6.00098 17.0667 6.09681 16.6458 6.28848 16.2375C6.48014 15.8292 6.77598 15.4917 7.17598 15.225C7.54264 14.9917 7.83848 14.6917 8.06348 14.325C8.28848 13.9583 8.44264 13.5667 8.52598 13.15L8.22598 13C8.12598 12.95 8.03431 12.8917 7.95098 12.825L5.65098 13.65C5.36764 13.75 5.09264 13.8333 4.82598 13.9C4.55931 13.9667 4.28431 14 4.00098 14C2.95098 14 2.02181 13.5417 1.21348 12.625C0.405143 11.7083 0.000976562 10.3667 0.000976562 8.6C0.000976562 7.75 0.255143 7.10417 0.763477 6.6625C1.27181 6.22083 1.84264 6 2.47598 6C2.90931 6 3.33431 6.09583 3.75098 6.2875C4.16764 6.47917 4.50931 6.775 4.77598 7.175C5.00931 7.54167 5.30931 7.8375 5.67598 8.0625C6.04264 8.2875 6.43431 8.44167 6.85098 8.525L7.00098 8.225C7.05098 8.125 7.10931 8.03333 7.17598 7.95L6.35098 5.65C6.25098 5.36667 6.16764 5.09167 6.10098 4.825C6.03431 4.55833 6.00098 4.29167 6.00098 4.025C6.00098 2.95833 6.45931 2.02083 7.37598 1.2125C8.29264 0.404167 9.63431 0 11.401 0C12.251 0 12.8968 0.254167 13.3385 0.7625C13.7801 1.27083 14.001 1.84167 14.001 2.475C14.001 2.90833 13.9051 3.33333 13.7135 3.75C13.5218 4.16667 13.226 4.50833 12.826 4.775C12.4593 5.00833 12.1635 5.30833 11.9385 5.675C11.7135 6.04167 11.5593 6.43333 11.476 6.85L11.776 7C11.876 7.05 11.9676 7.10833 12.051 7.175L14.351 6.325C14.6343 6.225 14.9051 6.14583 15.1635 6.0875C15.4218 6.02917 15.6926 6 15.976 6C17.326 6 18.3343 6.55833 19.001 7.675C19.6676 8.79167 20.001 10.0333 20.001 11.4C20.001 12.25 19.7343 12.8958 19.201 13.3375C18.6676 13.7792 18.076 14 17.426 14C17.0093 14 16.6051 13.9042 16.2135 13.7125C15.8218 13.5208 15.4926 13.225 15.226 12.825C14.9926 12.4583 14.6926 12.1625 14.326 11.9375C13.9593 11.7125 13.5676 11.5583 13.151 11.475L13.001 11.775C12.951 11.875 12.8926 11.9667 12.826 12.05L13.651 14.35C13.751 14.6167 13.8343 14.8708 13.901 15.1125C13.9676 15.3542 14.001 15.6083 14.001 15.875C14.0176 16.9583 13.5676 17.9167 12.651 18.75C11.7343 19.5833 10.3843 20 8.60098 20ZM10.001 11.5C10.4176 11.5 10.7718 11.3542 11.0635 11.0625C11.3551 10.7708 11.501 10.4167 11.501 10C11.501 9.58333 11.3551 9.22917 11.0635 8.9375C10.7718 8.64583 10.4176 8.5 10.001 8.5C9.58431 8.5 9.23014 8.64583 8.93848 8.9375C8.64681 9.22917 8.50098 9.58333 8.50098 10C8.50098 10.4167 8.64681 10.7708 8.93848 11.0625C9.23014 11.3542 9.58431 11.5 10.001 11.5ZM8.85098 6.7C8.95098 6.66667 9.05514 6.6375 9.16348 6.6125C9.27181 6.5875 9.37598 6.56667 9.47598 6.55C9.60931 5.85 9.86348 5.2 10.2385 4.6C10.6135 4 11.1093 3.5 11.726 3.1C11.8093 3.03333 11.876 2.95 11.926 2.85C11.976 2.75 12.001 2.625 12.001 2.475C12.001 2.34167 11.951 2.22917 11.851 2.1375C11.751 2.04583 11.601 2 11.401 2C10.7676 2 10.051 2.1375 9.25098 2.4125C8.45098 2.6875 8.03431 3.225 8.00098 4.025C8.00098 4.175 8.02181 4.31667 8.06348 4.45C8.10514 4.58333 8.14264 4.70833 8.17598 4.825L8.85098 6.7ZM4.00098 12C4.23431 12 4.50931 11.9417 4.82598 11.825L6.70098 11.15C6.66764 11.05 6.63848 10.9458 6.61348 10.8375C6.58848 10.7292 6.56764 10.625 6.55098 10.525C5.85098 10.3917 5.20098 10.1375 4.60098 9.7625C4.00098 9.3875 3.50098 8.89167 3.10098 8.275C3.03431 8.19167 2.94681 8.125 2.83848 8.075C2.73014 8.025 2.60931 8 2.47598 8C2.32598 8 2.20931 8.05 2.12598 8.15C2.04264 8.25 2.00098 8.4 2.00098 8.6C2.00098 9.5 2.17181 10.2917 2.51348 10.975C2.85514 11.6583 3.35098 12 4.00098 12ZM8.60098 18C9.38431 18 10.1551 17.8417 10.9135 17.525C11.6718 17.2083 12.0343 16.6583 12.001 15.875C12.001 15.7417 11.9801 15.6167 11.9385 15.5C11.8968 15.3833 11.8593 15.275 11.826 15.175L11.151 13.3C11.051 13.3333 10.9468 13.3625 10.8385 13.3875C10.7301 13.4125 10.626 13.4333 10.526 13.45C10.3926 14.15 10.1385 14.8 9.76348 15.4C9.38848 16 8.89264 16.5 8.27598 16.9C8.19264 16.9667 8.12181 17.0542 8.06348 17.1625C8.00514 17.2708 7.98431 17.3833 8.00098 17.5C8.01764 17.6333 8.06764 17.75 8.15098 17.85C8.23431 17.95 8.38431 18 8.60098 18ZM17.426 12C17.576 12 17.7093 11.9583 17.826 11.875C17.9426 11.7917 18.001 11.6333 18.001 11.4C18.001 10.7667 17.8676 10.0458 17.601 9.2375C17.3343 8.42917 16.7926 8.01667 15.976 8C15.826 8 15.6843 8.01667 15.551 8.05C15.4176 8.08333 15.2926 8.11667 15.176 8.15L13.301 8.85C13.3343 8.95 13.3635 9.05417 13.3885 9.1625C13.4135 9.27083 13.4343 9.375 13.451 9.475C14.151 9.60833 14.801 9.8625 15.401 10.2375C16.001 10.6125 16.501 11.1083 16.901 11.725C16.951 11.8083 17.026 11.875 17.126 11.925C17.226 11.975 17.326 12 17.426 12Z" fill="white"/>
</svg>
